<svg xmlns="http://www.w3.org/2000/svg" xmlns:xlink="http://www.w3.org/1999/xlink" viewBox="0 0 1080 1080"><defs><style>.cls-1{fill:url(#Degradado_sin_nombre_31);}.cls-2{fill:#fff;stroke:#fff;stroke-miterlimit:10;stroke-width:3.98px;}</style><radialGradient id="Degradado_sin_nombre_31" cx="543.89" cy="154.7" r="918.07" gradientUnits="userSpaceOnUse"><stop offset="0.17" stop-color="#f99c07"/><stop offset="1" stop-color="#f15f14"/></radialGradient></defs><title>favicon-vecy-bienes-raices-app</title><g id="Capa_2" data-name="Capa 2"><circle class="cls-1" cx="540" cy="540" r="540"/></g><g id="Capa_1" data-name="Capa 1"><path class="cls-2" d="M243.22,512.71l7.31-.92a12.21,12.21,0,0,1,13.27,8.3c10.83,34.87,48.36,152.79,60.55,152.79,12.54,0,59.45-120.54,72.2-153.92a12.2,12.2,0,0,1,12.56-7.65l3.26.28c8.21.72,13.33,8.92,10.17,16.27C406.26,565.78,363,665.21,345.72,691.71a12.24,12.24,0,0,1-10.3,5.46h-23a12.23,12.23,0,0,1-11.17-7c-12.37-27.06-56.71-124.9-68.19-162.4A11.8,11.8,0,0,1,243.22,512.71Z"/><path class="cls-2" d="M699.33,597.06l.08,0a12.47,12.47,0,0,0,3.15-18.63c-9.81-11.85-28.91-28.26-59.35-28.26-47.63,0-79.38,45.53-76.74,79s25.13,69.64,71.44,73.67c30,2.6,51.64-13.33,63.18-24.87a12.44,12.44,0,0,0-1.86-19l-.16-.11a12.07,12.07,0,0,0-14.82,1c-9.26,8.25-27.17,20.84-46.34,16.23-27.78-6.7-45-21.44-46.31-49.56-1.25-26.76,14.55-52.24,51.6-52.24,22.23,0,34,10.61,39.82,19.09A12.19,12.19,0,0,0,699.33,597.06Z"/><path class="cls-2" d="M718.66,765.28l.18.87a12.19,12.19,0,0,0,14.73,9.49c20.79-5,61.74-21.06,73.58-71,.08-.32.17-.64.28-1l43.38-130.56a12.35,12.35,0,0,0-11.58-16.3h-3.88a12.19,12.19,0,0,0-11.57,8.41C814.43,593.46,797.21,672,791.38,672c-4.6,0-25.09-77.28-35.7-106a12.19,12.19,0,0,0-13.09-7.94l-4.75.66a12.36,12.36,0,0,0-9.76,16.66L775.52,700.9a11.89,11.89,0,0,1,.79,3.83c.37,8.29-1.82,36.94-47.93,45.83A12.41,12.41,0,0,0,718.66,765.28Z"/><path class="cls-2" d="M440.94,652.41c4.75,11.26,15.94,23.62,38.21,23.62,23.12,0,34.88-14.52,40.12-24a12.13,12.13,0,0,1,13.16-6.06l1.41.3a12.41,12.41,0,0,1,8.28,17.88c-8.08,15.56-26.06,37.84-63,38.71-56.89,1.33-68.79-50.9-70.12-64.3s1.32-81.7,66.15-87.06c46.91-3.87,64.72,34.34,71,55.75a12.36,12.36,0,0,1-10,15.79l-85.67,12.38A12.39,12.39,0,0,0,440.94,652.41ZM436,614.62l84.11-12.26h0s-14-29.28-45.72-26.61S436,614.62,436,614.62Z"/><path class="cls-2" d="M262.37,697.79s17.19,166.15,284.22,166.15c272.77,0,284.22-166.15,284.22-166.15s21.78,201.59-283.07,202.7C259.51,901.54,262.37,697.79,262.37,697.79Z"/><polygon class="cls-2" points="541.5 156.8 129.53 539.23 191.71 539.23 541.63 194.11 885.86 539.23 940.26 539.23 541.5 156.8"/></g></svg>